name ./resultDataOpenSim/trcMotMarkerGrf/sub10/grf-01-07.mot
datacolumns 19
datarows 27
range 0.92800000 1.03200000
endheader

                time	     ground_force_vx	     ground_force_vy	     ground_force_vz	     ground_force_px	     ground_force_py	     ground_force_pz	   l_ground_force_vx	   l_ground_force_vy	   l_ground_force_vz	   l_ground_force_px	   l_ground_force_py	   l_ground_force_pz	     ground_torque_x	     ground_torque_y	     ground_torque_z	   l_ground_torque_x	   l_ground_torque_y	   l_ground_torque_z	
          0.92800000	          0.00000000	          0.00000000	          0.00000000	          0.00000000	          0.00000000	          0.00000000	        -10.39005939	        389.36496105	         23.31321375	          0.02014041	         -0.00000000	         -0.05557791	          0.00000000	          0.00000000	          0.00000000	          0.00000000	         -0.43977037	          0.00000000	
          0.93200000	          0.00000000	          0.00000000	          0.00000000	          0.00000000	          0.00000000	          0.00000000	         -8.05395059	        388.40776904	         23.34270538	          0.02121934	         -0.00000000	         -0.05556325	          0.00000000	          0.00000000	          0.00000000	          0.00000000	         -0.61570452	          0.00000000	
          0.93600000	          0.00000000	          0.00000000	          0.00000000	          0.00000000	          0.00000000	          0.00000000	         -5.63562823	        388.74695931	         23.29677661	          0.02205641	         -0.00000000	         -0.05550464	          0.00000000	          0.00000000	          0.00000000	          0.00000000	         -0.82129896	          0.00000000	
          0.94000000	          0.00000000	          0.00000000	          0.00000000	          0.00000000	          0.00000000	          0.00000000	         -3.16766466	        390.44433528	         23.16161190	          0.02264321	         -0.00000000	         -0.05541431	          0.00000000	          0.00000000	          0.00000000	          0.00000000	         -1.06094327	          0.00000000	
          0.94400000	          0.00000000	          0.00000000	          0.00000000	          0.00000000	          0.00000000	          0.00000000	         -0.70640377	        393.47805094	         22.92579040	          0.02303074	         -0.00000000	         -0.05528714	          0.00000000	          0.00000000	          0.00000000	          0.00000000	         -1.33755056	          0.00000000	
          0.94800000	          0.00000000	          0.00000000	          0.00000000	          0.00000000	          0.00000000	          0.00000000	          1.68180801	        397.82733386	         22.57764636	          0.02332284	         -0.00000000	         -0.05508934	          0.00000000	          0.00000000	          0.00000000	          0.00000000	         -1.65230999	          0.00000000	
          0.95200000	          0.00000000	          0.00000000	          0.00000000	          0.00000000	          0.00000000	          0.00000000	          3.94777859	        403.51968018	         22.09979879	          0.02362522	         -0.00000000	         -0.05478390	          0.00000000	          0.00000000	          0.00000000	          0.00000000	         -2.00454987	          0.00000000	
          0.95600000	          0.00000000	          0.00000000	          0.00000000	          0.00000000	          0.00000000	          0.00000000	          6.08677513	        410.60662624	         21.46830916	          0.02401138	         -0.00000000	         -0.05435695	          0.00000000	          0.00000000	          0.00000000	          0.00000000	         -2.39155053	          0.00000000	
          0.96000000	          0.00000000	          0.00000000	          0.00000000	          0.00000000	          0.00000000	          0.00000000	          8.14338631	        419.09177155	         20.66211349	          0.02451673	         -0.00000000	         -0.05382721	          0.00000000	          0.00000000	          0.00000000	          0.00000000	         -2.80836273	          0.00000000	
          0.96400000	          0.00000000	          0.00000000	          0.00000000	          0.00000000	          0.00000000	          0.00000000	         10.18192761	        428.88153038	         19.68008430	          0.02513933	         -0.00000000	         -0.05324191	          0.00000000	          0.00000000	          0.00000000	          0.00000000	         -3.24785630	          0.00000000	
          0.96800000	          0.00000000	          0.00000000	          0.00000000	          0.00000000	          0.00000000	          0.00000000	         12.25137856	        439.78836142	         18.55985723	          0.02588129	         -0.00000000	         -0.05264825	          0.00000000	          0.00000000	          0.00000000	          0.00000000	         -3.70114784	          0.00000000	
          0.97200000	          0.00000000	          0.00000000	          0.00000000	          0.00000000	          0.00000000	          0.00000000	         14.37260688	        451.53119547	         17.38189589	          0.02679619	         -0.00000000	         -0.05207009	          0.00000000	          0.00000000	          0.00000000	          0.00000000	         -4.15833980	          0.00000000	
          0.97600000	          0.00000000	          0.00000000	          0.00000000	          0.00000000	          0.00000000	          0.00000000	         16.53875144	        463.73464766	         16.24580187	          0.02792724	         -0.00000000	         -0.05153815	          0.00000000	          0.00000000	          0.00000000	          0.00000000	         -4.60936639	          0.00000000	
          0.98000000	          0.00000000	          0.00000000	          0.00000000	          0.00000000	          0.00000000	          0.00000000	         18.72207897	        475.98159680	         15.24285711	          0.02923949	         -0.00000000	         -0.05110242	          0.00000000	          0.00000000	          0.00000000	          0.00000000	         -5.04472833	          0.00000000	
          0.98400000	          0.00000000	          0.00000000	          0.00000000	          0.00000000	          0.00000000	          0.00000000	         20.89118102	        487.89599721	         14.44475853	          0.03063412	         -0.00000000	         -0.05081808	          0.00000000	          0.00000000	          0.00000000	          0.00000000	         -5.45594794	          0.00000000	
          0.98800000	          0.00000000	          0.00000000	          0.00000000	          0.00000000	          0.00000000	          0.00000000	         23.01697736	        499.23045945	         13.89840329	          0.03198913	         -0.00000000	         -0.05072535	          0.00000000	          0.00000000	          0.00000000	          0.00000000	         -5.83566307	          0.00000000	
          0.99200000	          0.00000000	          0.00000000	          0.00000000	          0.00000000	          0.00000000	          0.00000000	         25.06057251	        509.94446509	         13.63777864	          0.03327280	         -0.00000000	         -0.05077816	          0.00000000	          0.00000000	          0.00000000	          0.00000000	         -6.17739956	          0.00000000	
          0.99600000	          0.00000000	          0.00000000	          0.00000000	          0.00000000	          0.00000000	          0.00000000	         26.98081862	        520.18932307	         13.71706363	          0.03456684	         -0.00000000	         -0.05086837	          0.00000000	          0.00000000	          0.00000000	          0.00000000	         -6.47519078	          0.00000000	
          1.00000000	          0.00000000	          0.00000000	          0.00000000	          0.00000000	          0.00000000	          0.00000000	         28.76170766	        530.18429837	         14.22296681	          0.03598768	         -0.00000000	         -0.05090826	          0.00000000	          0.00000000	          0.00000000	          0.00000000	         -6.72329875	          0.00000000	
          1.00400000	          0.00000000	          0.00000000	          0.00000000	          0.00000000	          0.00000000	          0.00000000	         30.41462209	        540.13477770	         15.24877101	          0.03758931	         -0.00000000	         -0.05088617	          0.00000000	          0.00000000	          0.00000000	          0.00000000	         -6.91625708	          0.00000000	
          1.00800000	          0.00000000	          0.00000000	          0.00000000	          0.00000000	          0.00000000	          0.00000000	         31.96607486	        550.26591150	         16.85659757	          0.03933943	         -0.00000000	         -0.05082368	          0.00000000	          0.00000000	          0.00000000	          0.00000000	         -7.04929520	          0.00000000	
          1.01200000	          0.00000000	          0.00000000	          0.00000000	          0.00000000	          0.00000000	          0.00000000	         33.47388107	        560.84827874	         19.05307981	          0.04117464	         -0.00000000	         -0.05074180	          0.00000000	          0.00000000	          0.00000000	          0.00000000	         -7.11906774	          0.00000000	
          1.01600000	          0.00000000	          0.00000000	          0.00000000	          0.00000000	          0.00000000	          0.00000000	         35.04769562	        572.16307896	         21.79895935	          0.04301539	         -0.00000000	         -0.05066737	          0.00000000	          0.00000000	          0.00000000	          0.00000000	         -7.12463450	          0.00000000	
          1.02000000	          0.00000000	          0.00000000	          0.00000000	          0.00000000	          0.00000000	          0.00000000	         36.82224491	        584.44717399	         25.03291295	          0.04480063	         -0.00000000	         -0.05060721	          0.00000000	          0.00000000	          0.00000000	          0.00000000	         -7.06867410	          0.00000000	
          1.02400000	          0.00000000	          0.00000000	          0.00000000	          0.00000000	          0.00000000	          0.00000000	         38.90002310	        597.82431074	         28.65782899	          0.04648090	         -0.00000000	         -0.05056010	          0.00000000	          0.00000000	          0.00000000	          0.00000000	         -6.95873838	          0.00000000	
          1.02800000	          0.00000000	          0.00000000	          0.00000000	          0.00000000	          0.00000000	          0.00000000	         41.31937189	        612.28512620	         32.50837827	          0.04801240	         -0.00000000	         -0.05051709	          0.00000000	          0.00000000	          0.00000000	          0.00000000	         -6.80806829	          0.00000000	
          1.03200000	          0.00000000	          0.00000000	          0.00000000	          0.00000000	          0.00000000	          0.00000000	         44.06514613	        627.73271250	         36.35666227	          0.04938880	         -0.00000000	         -0.05045358	          0.00000000	          0.00000000	          0.00000000	          0.00000000	         -6.63542306	          0.00000000	
